<svg xmlns="http://www.w3.org/2000/svg" viewBox="0 0 150 75.13"><defs><style>.cls-1{fill:#b6bccf;}.cls-2{fill:#f9f9f9;}</style></defs><g id="Capa_2" data-name="Capa 2"><g id="Capa_1-2" data-name="Capa 1"><path class="cls-1" d="M147.07,73.76H14.65"/><path class="cls-1" d="M75,2.88A72.52,72.52,0,0,0,32.23,16.71v11H20.51V39.19h5.86V50.71H14.65V73.76H147.07C147.07,34.62,114.8,2.88,75,2.88Z"/><path class="cls-2" d="M92,19a21.61,21.61,0,1,0,22,21.61A21.79,21.79,0,0,0,92,19Z"/><ellipse class="cls-1" cx="91.99" cy="40.63" rx="7.32" ry="7.2"/><path d="M150,75.13c0-19.7-7.8-39.59-22-53.53a75.94,75.94,0,0,0-97.54-7.2,2.85,2.85,0,0,0-1.19,2.31v8.07H20.51a2.9,2.9,0,0,0-2.93,2.88v8.65H14.65a2.88,2.88,0,1,0,0,5.76h8.79v5.76H14.65a2.9,2.9,0,0,0-2.93,2.88V62.24H2.93a2.88,2.88,0,1,0,0,5.76l8.65.07,0,7.06m6-4.25V53.59H38.09a2.88,2.88,0,1,0,0-5.76H29.3V42.07h2.93a2.88,2.88,0,1,0,0-5.76H23.44V30.54H44a2.88,2.88,0,1,0,0-5.76H35.16V18.19A69.29,69.29,0,0,1,75,5.76c37.14,0,67.54,29,69.08,65.12Z"/><path d="M92,16.14a24.72,24.72,0,0,0-24.9,24.49,24.9,24.9,0,0,0,49.8,0A24.72,24.72,0,0,0,92,16.14Zm0,43.22A18.73,18.73,0,1,1,111,40.63,18.91,18.91,0,0,1,92,59.36Z"/><path d="M92,30.54a10.09,10.09,0,1,0,10.26,10.09A10.19,10.19,0,0,0,92,30.54ZM92,45a4.32,4.32,0,1,1,4.4-4.32A4.36,4.36,0,0,1,92,45Z"/></g></g></svg>