<?xml version="1.0" encoding="utf-8"?>
<!-- Generator: Adobe Illustrator 24.1.0, SVG Export Plug-In . SVG Version: 6.00 Build 0)  -->
<svg version="1.1" id="Capa_1" xmlns:svgjs="http://svgjs.com/svgjs"
	 xmlns="http://www.w3.org/2000/svg" xmlns:xlink="http://www.w3.org/1999/xlink" x="0px" y="0px" viewBox="0 0 150 75"
	 style="enable-background:new 0 0 150 75;" xml:space="preserve">
<style type="text/css">
	.st0{fill:#B6BCCF;}
	.st1{fill:#F9F9F9;}
</style>
<g>
	<g>
		<path class="st0" d="M12.5,3.3l-0.2,16.9h3.1v11.2h6.1v11.2h3v11.2h15.2v11.2H55v5.5c5.5,1.2,11.2,1.8,17,1.8
			c41.4,0,74.9-30.9,74.9-69.1H12.5z"/>
		<g>
			<ellipse cx="126.2" cy="51" rx="3" ry="2.8"/>
			<path d="M6.1,17.4l-3,0c-1.7,0-3,1.3-3,2.8s1.4,2.8,3,2.8h12.2v5.6H6.1c-1.7,0-3,1.3-3,2.8s1.4,2.8,3,2.8h15.2v5.6H9.1
				c-1.7,0-3,1.3-3,2.8c0,1.6,1.4,2.8,3,2.8h15.2v8.4c0,0.7,0.3,1.5,0.9,2c0.6,0.5,1.4,0.8,2.2,0.8h12.2v8.4c0,0.7,0.3,1.5,0.9,2
				c0.6,0.5,1.4,0.8,2.2,0.8h12.2v2.7c0,1.3,1,2.4,2.4,2.7c5.8,1.2,11.8,1.9,17.7,1.9h0c8.3,0,16.5-1.2,24.4-3.6
				c7.6-2.3,14.7-5.7,21.2-10c0.7-0.4,1.1-1.1,1.2-1.8c0.1-0.7-0.1-1.5-0.5-2.1c-0.6-0.7-1.5-1.2-2.5-1.2c-0.6,0-1.3,0.2-1.8,0.5
				c-12.3,8.2-26.8,12.5-42.1,12.5c-4.7,0-9.4-0.4-14-1.3v-3.2c0-0.7-0.3-1.5-0.9-2c-0.6-0.5-1.4-0.8-2.2-0.8H45.7v-5.6h3
				c1.7,0,3-1.3,3-2.8c0-1.6-1.4-2.8-3-2.8H30.4v-8.4c0-0.7-0.3-1.5-0.9-2c-0.6-0.5-1.4-0.8-2.2-0.8v-5.6h3c1.7,0,3-1.3,3-2.8
				s-1.4-2.8-3-2.8h-9.1v-5.6h3c1.7,0,3-1.3,3-2.8s-1.4-2.8-3-2.8h-9.1V6.1h128.7c-0.5,11.9-1.8,23.5-8.9,33.5
				c-0.9,1.3-0.5,3,0.9,3.9c0.5,0.3,1.1,0.5,1.7,0.5c1,0,2-0.5,2.5-1.3C148.4,31,150,0,150,0H11.6v17.3"/>
			<path d="M51.7,17.3c0-1.6-1.4-2.8-3-2.8H36.5c-1.7,0-3,1.3-3,2.8s1.4,2.8,3,2.8h12.2C50.3,20.1,51.7,18.9,51.7,17.3z"/>
			<path d="M39.5,25.7c-1.7,0-3,1.3-3,2.8c0,1.6,1.4,2.8,3,2.8h3c1.7,0,3-1.3,3-2.8c0-1.6-1.4-2.8-3-2.8H39.5z"/>
			<path d="M79.1,39.8c0-1.6-1.4-2.8-3-2.8H57.8c-1.7,0-3,1.3-3,2.8c0,1.6,1.4,2.8,3,2.8H76C77.7,42.6,79.1,41.3,79.1,39.8z"/>
			<path d="M60.8,48.2c-1.7,0-3,1.3-3,2.8c0,1.6,1.4,2.8,3,2.8h3c1.7,0,3-1.3,3-2.8c0-1.6-1.4-2.8-3-2.8H60.8z"/>
			<path d="M85.2,48.2c-1.7,0-3,1.3-3,2.8c0,1.6,1.4,2.8,3,2.8h12.2c1.7,0,3-1.3,3-2.8c0-1.6-1.4-2.8-3-2.8H85.2z"/>
		</g>
	</g>
</g>
<g>
	<g>
		<path class="st0" d="M147.1-8H14.6"/>
		<path class="st0" d="M75-78.9c-16,0-30.8,5.1-42.8,13.8v10.9H20.5v11.5h5.9v11.5H14.6v11.5V-8h132.4
			C147.1-47.2,114.8-78.9,75-78.9z"/>
		<path class="st1" d="M92-62.8c-12.1,0-22,9.7-22,21.6s9.8,21.6,22,21.6s22-9.7,22-21.6S104.1-62.8,92-62.8z"/>
		<ellipse class="st0" cx="92" cy="-41.2" rx="7.3" ry="7.2"/>
		<g>
			<path d="M150-6.6c0-19.7-7.8-39.6-22-53.5c-14.2-13.9-33-21.6-53-21.6c-16.2,0-31.5,5-44.5,14.4c-0.7,0.5-1.2,1.4-1.2,2.3v8.1
				h-8.8c-1.6,0-2.9,1.3-2.9,2.9v8.6h-2.9c-1.6,0-2.9,1.3-2.9,2.9c0,1.6,1.3,2.9,2.9,2.9h5.9h2.9v5.8h-8.8c-1.6,0-2.9,1.3-2.9,2.9
				v11.5H2.9c-1.6,0-2.9,1.3-2.9,2.9c0,1.6,1.3,2.9,2.9,2.9l8.6,0.1l0,7.1 M17.6-10.9v-17.3h20.5c1.6,0,2.9-1.3,2.9-2.9
				c0-1.6-1.3-2.9-2.9-2.9h-8.8v-5.8h2.9c1.6,0,2.9-1.3,2.9-2.9c0-1.6-1.3-2.9-2.9-2.9h-8.8v-5.8h20.5c1.6,0,2.9-1.3,2.9-2.9
				S45.6-57,43.9-57h-8.8v-6.6C46.9-71.7,60.6-76,75-76c37.1,0,67.5,29,69.1,65.1H17.6z"/>
			<path d="M92-65.6c-13.7,0-24.9,11-24.9,24.5S78.3-16.7,92-16.7s24.9-11,24.9-24.5S105.7-65.6,92-65.6z M92-22.4
				c-10.5,0-19-8.4-19-18.7s8.5-18.7,19-18.7s19,8.4,19,18.7S102.5-22.4,92-22.4z"/>
			<path d="M92-51.2c-5.7,0-10.3,4.5-10.3,10.1S86.3-31.1,92-31.1s10.3-4.5,10.3-10.1S97.6-51.2,92-51.2z M92-36.8
				c-2.4,0-4.4-1.9-4.4-4.3s2-4.3,4.4-4.3s4.4,1.9,4.4,4.3S94.4-36.8,92-36.8z"/>
		</g>
	</g>
</g>
</svg>
