<svg xmlns="http://www.w3.org/2000/svg" viewBox="0 0 150 75.17"><defs><style>.cls-1{fill:#b6bccf;}</style></defs><g id="Capa_2" data-name="Capa 2"><g id="Capa_1-2" data-name="Capa 1"><path class="cls-1" d="M12.48,3.28,12.3,20.13h3.15V31.36h6.09V42.6h3V53.83H39.8V65.06H55v5.51a81.56,81.56,0,0,0,17,1.8C113.43,72.37,147,41.43,147,3.28Z"/><ellipse cx="126.22" cy="51" rx="3.04" ry="2.81"/><path d="M6.09,17.37l-3-.05a2.93,2.93,0,0,0-3,2.81,2.93,2.93,0,0,0,3,2.81H15.22v5.61H6.09a2.82,2.82,0,1,0,0,5.62H21.31v5.62H9.13a2.81,2.81,0,1,0,0,5.61H24.35v8.43a2.74,2.74,0,0,0,.9,2,3.2,3.2,0,0,0,2.15.82H39.57v8.42a2.72,2.72,0,0,0,.9,2,3.2,3.2,0,0,0,2.15.82H54.8v2.7a2.85,2.85,0,0,0,2.35,2.73,84.08,84.08,0,0,0,17.74,1.87h0a84,84,0,0,0,24.39-3.59,80.61,80.61,0,0,0,21.24-10,2.8,2.8,0,0,0,1.22-1.83,2.6,2.6,0,0,0-.54-2.09,3.14,3.14,0,0,0-2.47-1.17A3.19,3.19,0,0,0,117,57,75.49,75.49,0,0,1,74.89,69.56a78.83,78.83,0,0,1-14-1.26V65.06a2.71,2.71,0,0,0-.89-2,3.2,3.2,0,0,0-2.15-.82H45.66V56.64h3.05a2.82,2.82,0,1,0,0-5.62H30.44V42.6a2.71,2.71,0,0,0-.89-2,3.21,3.21,0,0,0-2.15-.82V34.17h3a2.82,2.82,0,1,0,0-5.62H21.31V22.94h3a2.94,2.94,0,0,0,3-2.81,2.94,2.94,0,0,0-3-2.81H15.22V6.09H143.89c-.54,11.93-1.8,23.52-8.89,33.49a2.69,2.69,0,0,0,.88,3.89,3.23,3.23,0,0,0,1.67.46,3.11,3.11,0,0,0,2.55-1.27C148.42,31,150,0,150,0H11.6V17.32"/><path d="M51.67,17.32a2.93,2.93,0,0,0-3-2.81H36.45a2.93,2.93,0,0,0-3,2.81,2.93,2.93,0,0,0,3,2.81H48.63A2.93,2.93,0,0,0,51.67,17.32Z"/><path d="M39.5,25.75a2.81,2.81,0,1,0,0,5.61h3a2.81,2.81,0,1,0,0-5.61Z"/><path d="M79.07,39.79A2.93,2.93,0,0,0,76,37H57.76a2.82,2.82,0,1,0,0,5.62H76A2.93,2.93,0,0,0,79.07,39.79Z"/><path d="M60.81,48.21a2.82,2.82,0,1,0,0,5.62h3a2.82,2.82,0,1,0,0-5.62Z"/><path d="M85.16,48.21a2.82,2.82,0,1,0,0,5.62H97.34a2.82,2.82,0,1,0,0-5.62Z"/></g></g></svg>